<?xml version="1.0" encoding="UTF-8" standalone="no"?>
<svg
   xmlns:dc="http://purl.org/dc/elements/1.1/"
   xmlns:cc="http://creativecommons.org/ns#"
   xmlns:rdf="http://www.w3.org/1999/02/22-rdf-syntax-ns#"
   xmlns:svg="http://www.w3.org/2000/svg"
   xmlns="http://www.w3.org/2000/svg"
   xmlns:xlink="http://www.w3.org/1999/xlink"
   xmlns:sodipodi="http://sodipodi.sourceforge.net/DTD/sodipodi-0.dtd"
   xmlns:inkscape="http://www.inkscape.org/namespaces/inkscape"
   inkscape:version="1.0 (4035a4fb49, 2020-05-01)"
   sodipodi:docname="Keyboard.svg"
   xml:space="preserve"
   enable-background="new 0 0 146.98 97.838"
   viewBox="0 0 114.02101 54.690027"
   height="54.690025"
   width="114.021"
   y="0px"
   x="0px"
   id="Layer_2_1_"
   version="1.1"><metadata
   id="metadata77"><rdf:RDF><cc:Work
       rdf:about=""><dc:format>image/svg+xml</dc:format><dc:type
         rdf:resource="http://purl.org/dc/dcmitype/StillImage" /></cc:Work></rdf:RDF></metadata><defs
   id="defs75" /><sodipodi:namedview
   inkscape:current-layer="Layer_2_1_"
   inkscape:window-maximized="1"
   inkscape:window-y="-11"
   inkscape:window-x="-11"
   inkscape:cy="25.317999"
   inkscape:cx="57.917998"
   inkscape:zoom="8.3198759"
   showgrid="false"
   id="namedview73"
   inkscape:window-height="1000"
   inkscape:window-width="1920"
   inkscape:pageshadow="2"
   inkscape:pageopacity="0"
   guidetolerance="10"
   gridtolerance="10"
   objecttolerance="10"
   borderopacity="1"
   bordercolor="#666666"
   pagecolor="#ffffff" />
<g
   transform="translate(-15.572,-23.601)"
   id="g70">
	<defs
   id="defs3">
		<rect
   height="54.691002"
   width="114.021"
   y="23.601"
   x="15.572"
   id="SVGID_1_" />
	</defs>
	<clipPath
   id="SVGID_2_">
		<use
   height="100%"
   width="100%"
   y="0"
   x="0"
   id="use5"
   overflow="visible"
   xlink:href="#SVGID_1_" />
	</clipPath>
	<path
   id="path8"
   d="m 19.712,24.501 c 0,0 -3.24,0 -3.24,3.24 v 46.41 c 0,0 0,3.24 3.24,3.24 h 105.741 c 0,0 3.24,0 3.24,-3.24 v -46.41 c 0,0 0,-3.24 -3.24,-3.24 z"
   stroke-width="1.8"
   stroke="#20221d"
   fill="none"
   clip-path="url(#SVGID_2_)" />
	<path
   id="path10"
   d="m 43.614,63.057 c 0,0 -0.648,0 -0.648,0.647 v 5.624 c 0,0 0,0.648 0.648,0.648 h 57.662 c 0,0 0.648,0 0.648,-0.648 v -5.624 c 0,0 0,-0.647 -0.648,-0.647 z"
   fill="#20221d"
   clip-path="url(#SVGID_2_)" />
	<path
   id="path12"
   d="m 106.031,63.057 c 0,0 -0.648,0 -0.648,0.647 v 5.624 c 0,0 0,0.648 0.648,0.648 h 14.85 c 0,0 0.648,0 0.648,-0.648 v -5.624 c 0,0 0,-0.647 -0.648,-0.647 z"
   fill="#20221d"
   clip-path="url(#SVGID_2_)" />
	<path
   id="path14"
   d="m 24.146,63.057 c 0,0 -0.648,0 -0.648,0.647 v 5.624 c 0,0 0,0.648 0.648,0.648 h 14.85 c 0,0 0.648,0 0.648,-0.648 v -5.624 c 0,0 0,-0.647 -0.648,-0.647 z"
   fill="#20221d"
   clip-path="url(#SVGID_2_)" />
	<path
   id="path16"
   d="m 54.132,52.677 c 0,0 -0.647,0 -0.647,0.647 v 5.624 c 0,0 0,0.648 0.647,0.648 h 5.624 c 0,0 0.648,0 0.648,-0.648 v -5.624 c 0,0 0,-0.647 -0.648,-0.647 z"
   fill="#20221d"
   clip-path="url(#SVGID_2_)" />
	<path
   id="path18"
   d="m 43.752,52.677 c 0,0 -0.648,0 -0.648,0.647 v 5.624 c 0,0 0,0.648 0.648,0.648 h 5.624 c 0,0 0.647,0 0.647,-0.648 v -5.624 c 0,0 0,-0.647 -0.647,-0.647 z"
   fill="#20221d"
   clip-path="url(#SVGID_2_)" />
	<path
   id="path20"
   d="m 24.146,52.677 c 0,0 -0.648,0 -0.648,0.647 v 5.624 c 0,0 0,0.648 0.648,0.648 h 14.85 c 0,0 0.648,0 0.648,-0.648 v -5.624 c 0,0 0,-0.647 -0.648,-0.647 z"
   fill="#20221d"
   clip-path="url(#SVGID_2_)" />
	<path
   id="path22"
   d="m 64.512,52.677 c 0,0 -0.648,0 -0.648,0.647 v 5.624 c 0,0 0,0.648 0.648,0.648 h 5.624 c 0,0 0.647,0 0.647,-0.648 v -5.624 c 0,0 0,-0.647 -0.647,-0.647 z"
   fill="#20221d"
   clip-path="url(#SVGID_2_)" />
	<path
   id="path24"
   d="m 74.892,52.677 c 0,0 -0.647,0 -0.647,0.647 v 5.624 c 0,0 0,0.648 0.647,0.648 h 5.624 c 0,0 0.648,0 0.648,-0.648 v -5.624 c 0,0 0,-0.647 -0.648,-0.647 z"
   fill="#20221d"
   clip-path="url(#SVGID_2_)" />
	<path
   id="path26"
   d="m 85.271,52.677 c 0,0 -0.648,0 -0.648,0.647 v 5.624 c 0,0 0,0.648 0.648,0.648 h 5.624 c 0,0 0.647,0 0.647,-0.648 v -5.624 c 0,0 0,-0.647 -0.647,-0.647 z"
   fill="#20221d"
   clip-path="url(#SVGID_2_)" />
	<path
   id="path28"
   d="m 95.651,52.677 c 0,0 -0.647,0 -0.647,0.647 v 5.624 c 0,0 0,0.648 0.647,0.648 h 5.624 c 0,0 0.648,0 0.648,-0.648 v -5.624 c 0,0 0,-0.647 -0.648,-0.647 z"
   fill="#20221d"
   clip-path="url(#SVGID_2_)" />
	<path
   id="path30"
   d="m 106.031,52.677 c 0,0 -0.648,0 -0.648,0.647 v 5.624 c 0,0 0,0.648 0.648,0.648 h 14.989 c 0,0 0.647,0 0.647,-0.648 v -5.624 c 0,0 0,-0.647 -0.647,-0.647 z"
   fill="#20221d"
   clip-path="url(#SVGID_2_)" />
	<path
   id="path32"
   d="m 49.519,42.297 c 0,0 -0.648,0 -0.648,0.647 v 5.624 c 0,0 0,0.648 0.648,0.648 h 5.624 c 0,0 0.648,0 0.648,-0.648 v -5.624 c 0,0 0,-0.647 -0.648,-0.647 z"
   fill="#20221d"
   clip-path="url(#SVGID_2_)" />
	<path
   id="path34"
   d="m 39.139,42.297 c 0,0 -0.648,0 -0.648,0.647 v 5.624 c 0,0 0,0.648 0.648,0.648 h 5.624 c 0,0 0.648,0 0.648,-0.648 v -5.624 c 0,0 0,-0.647 -0.648,-0.647 z"
   fill="#20221d"
   clip-path="url(#SVGID_2_)" />
	<path
   id="path36"
   d="m 24.146,42.297 c 0,0 -0.648,0 -0.648,0.647 v 5.624 c 0,0 0,0.648 0.648,0.648 h 10.237 c 0,0 0.648,0 0.648,-0.648 v -5.624 c 0,0 0,-0.647 -0.648,-0.647 z"
   fill="#20221d"
   clip-path="url(#SVGID_2_)" />
	<path
   id="path38"
   d="m 59.898,42.297 c 0,0 -0.648,0 -0.648,0.647 v 5.624 c 0,0 0,0.648 0.648,0.648 h 5.624 c 0,0 0.648,0 0.648,-0.648 v -5.624 c 0,0 0,-0.647 -0.648,-0.647 z"
   fill="#20221d"
   clip-path="url(#SVGID_2_)" />
	<path
   id="path40"
   d="m 70.278,42.297 c 0,0 -0.647,0 -0.647,0.647 v 5.624 c 0,0 0,0.648 0.647,0.648 h 5.624 c 0,0 0.648,0 0.648,-0.648 v -5.624 c 0,0 0,-0.647 -0.648,-0.647 z"
   fill="#20221d"
   clip-path="url(#SVGID_2_)" />
	<path
   id="path42"
   d="m 80.658,42.297 c 0,0 -0.648,0 -0.648,0.647 v 5.624 c 0,0 0,0.648 0.648,0.648 h 5.624 c 0,0 0.647,0 0.647,-0.648 v -5.624 c 0,0 0,-0.647 -0.647,-0.647 z"
   fill="#20221d"
   clip-path="url(#SVGID_2_)" />
	<path
   id="path44"
   d="m 91.038,42.297 c 0,0 -0.647,0 -0.647,0.647 v 5.624 c 0,0 0,0.648 0.647,0.648 h 5.624 c 0,0 0.648,0 0.648,-0.648 v -5.624 c 0,0 0,-0.647 -0.648,-0.647 z"
   fill="#20221d"
   clip-path="url(#SVGID_2_)" />
	<path
   id="path46"
   d="m 101.418,42.297 c 0,0 -0.648,0 -0.648,0.647 v 5.624 c 0,0 0,0.648 0.648,0.648 h 5.624 c 0,0 0.647,0 0.647,-0.648 v -5.624 c 0,0 0,-0.647 -0.647,-0.647 z"
   fill="#20221d"
   clip-path="url(#SVGID_2_)" />
	<path
   id="path48"
   d="m 111.798,42.297 c 0,0 -0.647,0 -0.647,0.647 v 5.624 c 0,0 0,0.648 0.647,0.648 h 9.222 c 0,0 0.648,0 0.648,-0.648 v -5.624 c 0,0 0,-0.647 -0.648,-0.647 z"
   fill="#20221d"
   clip-path="url(#SVGID_2_)" />
	<path
   id="path50"
   d="m 74.635,31.916 c 0,0 -0.647,0 -0.647,0.648 v 5.624 c 0,0 0,0.648 0.647,0.648 h 5.625 c 0,0 0.647,0 0.647,-0.648 v -5.624 c 0,0 0,-0.648 -0.647,-0.648 z"
   fill="#20221d"
   clip-path="url(#SVGID_2_)" />
	<path
   id="path52"
   d="m 64.537,31.916 c 0,0 -0.647,0 -0.647,0.648 v 5.624 c 0,0 0,0.648 0.647,0.648 h 5.625 c 0,0 0.647,0 0.647,-0.648 v -5.624 c 0,0 0,-0.648 -0.647,-0.648 z"
   fill="#20221d"
   clip-path="url(#SVGID_2_)" />
	<path
   id="path54"
   d="m 54.439,31.916 c 0,0 -0.648,0 -0.648,0.648 v 5.624 c 0,0 0,0.648 0.648,0.648 h 5.624 c 0,0 0.647,0 0.647,-0.648 v -5.624 c 0,0 0,-0.648 -0.647,-0.648 z"
   fill="#20221d"
   clip-path="url(#SVGID_2_)" />
	<path
   id="path56"
   d="m 44.342,31.916 c 0,0 -0.648,0 -0.648,0.648 v 5.624 c 0,0 0,0.648 0.648,0.648 h 5.624 c 0,0 0.647,0 0.647,-0.648 v -5.624 c 0,0 0,-0.648 -0.647,-0.648 z"
   fill="#20221d"
   clip-path="url(#SVGID_2_)" />
	<path
   id="path58"
   d="m 34.244,31.916 c 0,0 -0.648,0 -0.648,0.648 v 5.624 c 0,0 0,0.648 0.648,0.648 h 5.624 c 0,0 0.648,0 0.648,-0.648 v -5.624 c 0,0 0,-0.648 -0.648,-0.648 z"
   fill="#20221d"
   clip-path="url(#SVGID_2_)" />
	<path
   id="path60"
   d="m 24.146,31.916 c 0,0 -0.648,0 -0.648,0.648 v 5.624 c 0,0 0,0.648 0.648,0.648 h 5.624 c 0,0 0.648,0 0.648,-0.648 v -5.624 c 0,0 0,-0.648 -0.648,-0.648 z"
   fill="#20221d"
   clip-path="url(#SVGID_2_)" />
	<path
   id="path62"
   d="m 84.733,31.916 c 0,0 -0.647,0 -0.647,0.648 v 5.624 c 0,0 0,0.648 0.647,0.648 h 5.624 c 0,0 0.648,0 0.648,-0.648 v -5.624 c 0,0 0,-0.648 -0.648,-0.648 z"
   fill="#20221d"
   clip-path="url(#SVGID_2_)" />
	<path
   id="path64"
   d="m 94.832,31.916 c 0,0 -0.648,0 -0.648,0.648 v 5.624 c 0,0 0,0.648 0.648,0.648 h 5.623 c 0,0 0.648,0 0.648,-0.648 v -5.624 c 0,0 0,-0.648 -0.648,-0.648 z"
   fill="#20221d"
   clip-path="url(#SVGID_2_)" />
	<path
   id="path66"
   d="m 104.93,31.916 c 0,0 -0.648,0 -0.648,0.648 v 5.624 c 0,0 0,0.648 0.648,0.648 h 5.623 c 0,0 0.648,0 0.648,-0.648 v -5.624 c 0,0 0,-0.648 -0.648,-0.648 z"
   fill="#20221d"
   clip-path="url(#SVGID_2_)" />
	<path
   id="path68"
   d="m 115.027,31.916 c 0,0 -0.648,0 -0.648,0.648 v 5.624 c 0,0 0,0.648 0.648,0.648 h 5.624 c 0,0 0.647,0 0.647,-0.648 v -5.624 c 0,0 0,-0.648 -0.647,-0.648 z"
   fill="#20221d"
   clip-path="url(#SVGID_2_)" />
</g>
</svg>
