<?xml version="1.0" encoding="UTF-8" standalone="no"?>
<svg
   xmlns:dc="http://purl.org/dc/elements/1.1/"
   xmlns:cc="http://creativecommons.org/ns#"
   xmlns:rdf="http://www.w3.org/1999/02/22-rdf-syntax-ns#"
   xmlns:svg="http://www.w3.org/2000/svg"
   xmlns="http://www.w3.org/2000/svg"
   xmlns:sodipodi="http://sodipodi.sourceforge.net/DTD/sodipodi-0.dtd"
   xmlns:inkscape="http://www.inkscape.org/namespaces/inkscape"
   sodipodi:docname="Receiver.svg"
   inkscape:version="1.0 (4035a4fb49, 2020-05-01)"
   id="svg8"
   version="1.1"
   viewBox="0 0 210 297"
   height="297mm"
   width="210mm">
  <defs
     id="defs2" />
  <sodipodi:namedview
     inkscape:window-maximized="1"
     inkscape:window-y="-9"
     inkscape:window-x="-9"
     inkscape:window-height="1013"
     inkscape:window-width="1920"
     showgrid="false"
     inkscape:document-rotation="0"
     inkscape:current-layer="g853"
     inkscape:document-units="mm"
     inkscape:cy="491.75817"
     inkscape:cx="388.76752"
     inkscape:zoom="2.8"
     inkscape:pageshadow="2"
     inkscape:pageopacity="0.0"
     borderopacity="1.0"
     bordercolor="#666666"
     pagecolor="#ffffff"
     id="base" />
  <metadata
     id="metadata5">
    <rdf:RDF>
      <cc:Work
         rdf:about="">
        <dc:format>image/svg+xml</dc:format>
        <dc:type
           rdf:resource="http://purl.org/dc/dcmitype/StillImage" />
        <dc:title></dc:title>
      </cc:Work>
    </rdf:RDF>
  </metadata>
  <g
     id="layer1"
     inkscape:groupmode="layer"
     inkscape:label="Laag 1">
    <g
       transform="matrix(0.26458333,0,0,0.26458333,59.13625,91.714033)"
       id="g853">
      <path
         style="fill:#eeeeee;fill-opacity:1"
         fill="#000000"
         d="m 17.5,65.9 c -0.9,0.3 -2.6,1.5 -3.8,2.7 -3.8,3.8 -3.7,1.2 -3.7,50.9 0,29.4 0.2,44.5 0.5,46.1 0.7,3.1 2.6,5.8 5.4,7.4 2.2,1.3 2.5,1.3 10,1.5 l 7.7,0.2 0.1,6.1 c 0.1,3.4 0.2,6.6 0.4,7.1 0.5,2.1 2.3,2.5 11.2,2.5 4.5,0 8.7,-0.2 9.4,-0.5 1.9,-0.7 2.3,-2 2.3,-8.9 v -6.4 l 71,-0.1 71,-0.1 v 6.5 c 0,6.2 0,6.6 1.1,7.9 l 1.1,1.3 9.2,0.1 9.2,0.1 1.4,-1.4 1.4,-1.4 v -6.6 -6.6 l 7.9,-0.2 c 8.7,-0.1 9.5,-0.4 12.5,-3.5 3.3,-3.4 3.1,-0.5 3,-51.9 l -0.1,-46.3 -1.4,-2.3 c -0.9,-1.4 -2.3,-2.8 -3.7,-3.7 L 238.3,65 128.7,64.9 c -79.3,0.5 -110,0.6 -111.2,1 z m 219.9,8 1.2,1.1 v 44.7 c 0,47.3 0,45.6 -2.2,46.7 -0.8,0.4 -27.7,0.6 -108.5,0.6 H 20.3 L 19.2,165.8 18,164.7 V 119.8 75.1 l 1.2,-1.1 1.1,-1.2 h 108 108 z m -188,104.7 v 4 h -4 -4 v -4 -4 h 4 4 z m 165.7,0 v 4 h -4.2 -4.2 v -3.7 c 0,-2 0.1,-3.8 0.3,-4 0.1,-0.2 2.1,-0.3 4.2,-0.3 h 3.9 z"
         id="path835" />
      <path
         style="fill:#eeeeee;fill-opacity:1"
         fill="#000000"
         d="m 27.1,81.9 c -0.8,0.7 -1.2,1.7 -1.2,2.6 0,0.9 0.4,1.9 1.2,2.6 2.3,2.3 6.3,0.7 6.3,-2.6 0,-1.9 -1.8,-3.8 -3.8,-3.8 -0.8,0 -1.8,0.5 -2.5,1.2 z"
         id="path837" />
      <path
         style="fill:#eeeeee;fill-opacity:1"
         fill="#000000"
         d="M 43,81.9 41.7,83 41.6,94.9 c -0.1,13 0,14.5 1.4,15.9 0.9,0.9 2.3,0.9 85.3,0.9 h 84.4 l 1,-1.1 c 1,-1.1 1,-1.4 1,-14.4 V 83.1 l -1.2,-1.1 -1.1,-1.2 h -84 -84 z m 164.1,14.3 v 8 H 128.3 49.4 v -8 -8 h 78.8 78.8 v 8 z"
         id="path839" />
      <path
         style="fill:#eeeeee;fill-opacity:1"
         fill="#000000"
         d="m 224.3,81.7 c -2.6,2 -1,6.5 2.3,6.5 2.8,0 4.6,-2.6 3.5,-5.2 -1,-2.3 -3.8,-2.9 -5.8,-1.3 z"
         id="path841" />
      <path
         style="fill:#eeeeee;fill-opacity:1"
         fill="#000000"
         d="m 197.9,121.3 c -4.2,1.9 -6.5,5.6 -6.5,10.4 0,6.6 4.9,11.5 11.6,11.5 3.3,0 5.9,-1.1 8.1,-3.3 2.2,-2.2 3,-3.9 3.3,-7.3 0.3,-3.7 -0.7,-6.3 -3.1,-8.8 -3.4,-3.7 -8.7,-4.7 -13.4,-2.5 z m 8,7.8 c 1.6,1.9 1.5,3.5 -0.1,5.2 -2.7,2.6 -6.6,1.1 -6.6,-2.6 -0.1,-3.8 4.3,-5.4 6.7,-2.6 z"
         id="path843" />
      <path
         style="fill:#eeeeee;fill-opacity:1"
         fill="#000000"
         d="m 44.4,128.1 c -1.5,0.2 -2.6,1.7 -2.6,3.6 0,2.1 0.3,2.6 2.3,3.4 2.7,1.1 5.1,-0.5 5.1,-3.3 -0.1,-2.7 -2,-4.2 -4.8,-3.7 z"
         id="path845" />
      <path
         style="fill:#eeeeee;fill-opacity:1"
         fill="#000000"
         d="m 58.4,129.4 c -1.2,1.5 -1.3,2.9 -0.2,4.3 1,1.5 2.7,2 4.4,1.5 1.6,-0.6 2.3,-1.6 2.3,-3.7 0,-3.3 -4.5,-4.7 -6.5,-2.1 z"
         id="path847" />
      <path
         style="fill:#eeeeee;fill-opacity:1"
         fill="#000000"
         d="m 74.3,129.1 c -1,1 -1.2,3.2 -0.5,4.7 0.6,1.2 3.1,1.9 4.4,1.4 1.4,-0.5 2.6,-2.2 2.6,-3.6 0,-0.6 -0.4,-1.5 -1,-2.3 -1.1,-1.5 -4.1,-1.7 -5.5,-0.2 z"
         id="path849" />
      <path
         style="fill:#eeeeee;fill-opacity:1"
         fill="#000000"
         d="m 26.9,152.8 c -1.6,2.1 -1.2,4.5 0.9,5.6 1.1,0.6 14.4,0.7 100.6,0.7 h 99.3 l 1.4,-1.4 c 1.6,-1.6 1.7,-3.2 0.4,-4.9 l -0.9,-1.2 H 128.3 27.9 Z"
         id="path851" />
    </g>
  </g>
</svg>
