<?xml version="1.0" encoding="UTF-8" standalone="no"?>
<svg
   xmlns:dc="http://purl.org/dc/elements/1.1/"
   xmlns:cc="http://creativecommons.org/ns#"
   xmlns:rdf="http://www.w3.org/1999/02/22-rdf-syntax-ns#"
   xmlns:svg="http://www.w3.org/2000/svg"
   xmlns="http://www.w3.org/2000/svg"
   xmlns:sodipodi="http://sodipodi.sourceforge.net/DTD/sodipodi-0.dtd"
   xmlns:inkscape="http://www.inkscape.org/namespaces/inkscape"
   width="210mm"
   height="297mm"
   viewBox="0 0 210 297"
   version="1.1"
   id="svg5"
   xml:space="preserve"
   inkscape:version="1.0 (4035a4fb49, 2020-05-01)"
   sodipodi:docname="Sunglasses.svg"><metadata
     id="metadata7"><rdf:RDF><cc:Work
         rdf:about=""><dc:format>image/svg+xml</dc:format><dc:type
           rdf:resource="http://purl.org/dc/dcmitype/StillImage" /></cc:Work></rdf:RDF></metadata><sodipodi:namedview
     id="namedview7"
     pagecolor="#ffffff"
     bordercolor="#666666"
     borderopacity="1.0"
     inkscape:showpageshadow="2"
     inkscape:pageopacity="0.0"
     inkscape:pagecheckerboard="0"
     inkscape:deskcolor="#d1d1d1"
     inkscape:document-units="mm"
     showgrid="false"
     inkscape:zoom="1.4146524"
     inkscape:cx="254.08361"
     inkscape:cy="319.04833"
     inkscape:window-width="2560"
     inkscape:window-height="1387"
     inkscape:window-x="-8"
     inkscape:window-y="-8"
     inkscape:window-maximized="1"
     inkscape:current-layer="layer1"
     inkscape:document-rotation="0" /><defs
     id="defs2" /><g
     inkscape:label="Layer 1"
     inkscape:groupmode="layer"
     id="layer1"><path
       inkscape:export-ydpi="96"
       inkscape:export-xdpi="96"
       inkscape:export-filename="aviators.png"
       sodipodi:nodetypes="ccccccccccccccccccccccccccccccccccccccccccccccc"
       d="m 70.536902,121.39537 c -1.582454,0.0543 -3.167224,0.009 -4.749088,0.0996 -4.677355,0.21143 -9.344221,0.85108 -13.881915,2.01411 -3.613369,0.96748 -7.14261,2.61413 -9.78911,5.31524 -2.688217,2.7159 -4.440299,6.31298 -5.021999,10.08179 -0.491055,5.25553 0,0 -0.491055,5.25553 -0.186832,3.30052 -0.07769,6.62314 0.379127,9.89818 0.638665,4.398 2.153386,8.76357 4.955804,12.26323 1.185177,1.47358 2.530602,2.81752 3.968635,4.04362 2.369291,1.95102 5.181169,3.31888 8.102666,4.22418 2.384544,0.70692 4.882046,1.16888 7.376958,0.96645 3.541353,-0.25125 6.943717,-1.474 10.101998,-3.04224 5.124149,-2.59751 9.587437,-6.34271 13.47279,-10.54375 3.353644,-3.63232 6.149766,-7.74383 8.611722,-12.02068 1.43983,-2.58772 2.83873,-5.23012 3.718335,-8.06891 0.408255,-1.34959 0.666827,-2.74253 0.808334,-4.14461 0.115739,-0.46668 0.186721,-1.00583 0.736227,-1.15308 1.686649,-1.036 3.463069,-2.01003 5.412549,-2.43618 1.54616,-0.26871 3.029,0.40573 4.40047,1.03293 1.11201,0.53296 2.16922,1.17227 3.20135,1.84507 0.17353,2.43442 0.71428,4.84613 1.68413,7.08973 1.14474,2.7126 2.57574,5.29528 4.07605,7.82493 3.46398,5.76917 7.84882,10.99532 13.0082,15.32157 4.55409,3.82405 9.9207,6.83552 15.78957,8.01858 3.74777,0.75464 7.64836,0.0944 11.19395,-1.22104 2.12751,-0.83103 4.15792,-1.93209 5.99081,-3.29617 1.91393,-1.49939 3.62541,-3.26263 5.07451,-5.21421 2.74382,-3.81488 4.1763,-8.44989 4.56346,-13.10345 0.22662,-2.52902 0.29339,-5.07293 0.22781,-7.61068 l -0.47183,-5.74082 c -0.42256,-2.37454 -1.19284,-4.69955 -2.42696,-6.77976 -1.71404,-2.95893 -4.3009,-5.39991 -7.36554,-6.92038 -2.36275,-1.18257 -4.93908,-1.85299 -7.50169,-2.44527 -5.14389,-1.11708 -10.41726,-1.54154 -15.6745,-1.55311 -4.79715,-0.004 -9.59432,0.009 -14.3915,5e-5 -18.36343,-0.001 -36.726856,0.001 -55.090268,-4.2e-4 z m 16.832083,2.56815 h 35.338925 c -1.92293,0.72196 -3.89375,1.46219 -5.51892,2.75021 -1.74154,1.70428 -3.6008,3.40417 -4.67521,5.63252 -0.39687,0.87068 -0.63549,1.81474 -0.68679,2.77077 -1.86709,-1.13143 -3.84844,-2.1829 -6.01818,-2.57194 -1.72905,-0.23534 -3.42816,0.39821 -4.9719,1.11184 -0.878955,0.42055 -1.722907,0.90942 -2.558527,1.40936 -0.501637,-3.2388 -2.524009,-6.08212 -5.061789,-8.07897 -1.736934,-1.37643 -3.768924,-2.29458 -5.847609,-3.02379 z"
       style="fill:#eeeeee;fill-opacity:1;stroke-width:0.122532"
       id="path302" /></g></svg>
