<?xml version="1.0" encoding="UTF-8" standalone="no"?>
<svg
   xmlns:dc="http://purl.org/dc/elements/1.1/"
   xmlns:cc="http://creativecommons.org/ns#"
   xmlns:rdf="http://www.w3.org/1999/02/22-rdf-syntax-ns#"
   xmlns:svg="http://www.w3.org/2000/svg"
   xmlns="http://www.w3.org/2000/svg"
   xmlns:sodipodi="http://sodipodi.sourceforge.net/DTD/sodipodi-0.dtd"
   xmlns:inkscape="http://www.inkscape.org/namespaces/inkscape"
   sodipodi:docname="TV.svg"
   inkscape:version="1.0 (4035a4fb49, 2020-05-01)"
   id="svg8"
   version="1.1"
   viewBox="0 0 210 297"
   height="297mm"
   width="210mm">
  <defs
     id="defs2" />
  <sodipodi:namedview
     inkscape:window-maximized="1"
     inkscape:window-y="-9"
     inkscape:window-x="-9"
     inkscape:window-height="1013"
     inkscape:window-width="1920"
     showgrid="false"
     inkscape:document-rotation="0"
     inkscape:current-layer="layer1"
     inkscape:document-units="mm"
     inkscape:cy="546.79531"
     inkscape:cx="176.58661"
     inkscape:zoom="0.98994949"
     inkscape:pageshadow="2"
     inkscape:pageopacity="0.0"
     borderopacity="1.0"
     bordercolor="#666666"
     pagecolor="#ffffff"
     id="base" />
  <metadata
     id="metadata5">
    <rdf:RDF>
      <cc:Work
         rdf:about="">
        <dc:format>image/svg+xml</dc:format>
        <dc:type
           rdf:resource="http://purl.org/dc/dcmitype/StillImage" />
        <dc:title></dc:title>
      </cc:Work>
    </rdf:RDF>
  </metadata>
  <g
     id="layer1"
     inkscape:groupmode="layer"
     inkscape:label="Laag 1">
    <g
       style="fill:#eeeeee;fill-opacity:1"
       id="g843"
       transform="matrix(0.01157606,0,0,-0.01157606,39.71393,205.53723)">
      <path
         d="M 10205.3,4131.6 H 1689.31 V 9208.51 H 10205.3 Z M 10372,9853.64 H 1573.89 C 1327,9853.64 1125,9632.75 1125,9362.77 V 3865.13 c 0,-269.97 202,-490.86 448.89,-490.86 H 10372 c 246.9,0 448.9,220.89 448.9,490.86 v 5497.64 c 0,269.98 -202,490.87 -448.9,490.87"
         style="fill:#eeeeee;fill-opacity:1;fill-rule:nonzero;stroke:none"
         id="path845" />
      <path
         d="M 8550.84,2518.77 H 6396.19 v 729.28 h -769.52 v -729.28 h -2231.6 c -169.29,0 -307.8,-151.47 -307.8,-336.59 V 1873.6 h 5771.37 v 308.58 c 0,185.12 -138.51,336.59 -307.8,336.59"
         style="fill:#eeeeee;fill-opacity:1;fill-rule:nonzero;stroke:none"
         id="path847" />
    </g>
  </g>
</svg>
