<?xml version="1.0" encoding="UTF-8" standalone="no"?>
<svg
   xmlns:dc="http://purl.org/dc/elements/1.1/"
   xmlns:cc="http://creativecommons.org/ns#"
   xmlns:rdf="http://www.w3.org/1999/02/22-rdf-syntax-ns#"
   xmlns:svg="http://www.w3.org/2000/svg"
   xmlns="http://www.w3.org/2000/svg"
   xmlns:sodipodi="http://sodipodi.sourceforge.net/DTD/sodipodi-0.dtd"
   xmlns:inkscape="http://www.inkscape.org/namespaces/inkscape"
   inkscape:version="1.0 (4035a4fb49, 2020-05-01)"
   sodipodi:docname="VolDown2.svg"
   xml:space="preserve"
   style="enable-background:new 0 0 122.88 95.14"
   viewBox="0 0 122.88 95.14"
   y="0px"
   x="0px"
   id="Layer_1"
   version="1.1"><metadata
     id="metadata11"><rdf:RDF><cc:Work
         rdf:about=""><dc:format>image/svg+xml</dc:format><dc:type
           rdf:resource="http://purl.org/dc/dcmitype/StillImage" /><dc:title></dc:title></cc:Work></rdf:RDF></metadata><defs
     id="defs9" /><sodipodi:namedview
     inkscape:current-layer="Layer_1"
     inkscape:window-maximized="1"
     inkscape:window-y="-9"
     inkscape:window-x="-9"
     inkscape:cy="46.919875"
     inkscape:cx="61.439999"
     inkscape:zoom="8.8501157"
     showgrid="false"
     id="namedview7"
     inkscape:window-height="1013"
     inkscape:window-width="1920"
     inkscape:pageshadow="2"
     inkscape:pageopacity="0"
     guidetolerance="10"
     gridtolerance="10"
     objecttolerance="10"
     borderopacity="1"
     bordercolor="#666666"
     pagecolor="#ffffff" /><g
     id="g4"><path
       sodipodi:nodetypes="csccsccscccccssccsssscssscsscsccccccs"
       id="path2"
       d="m 119.49,44.17 c 1.88,0 3.4,1.52 3.4,3.4 0,1.88 -1.52,3.4 -3.4,3.4 -41.82,-0.01 -3.01384,-0.01 -41.82,-0.01 -1.88,0 -3.4,-1.52 -3.4,-3.4 0,-1.88 1.52,-3.4 3.4,-3.4 48.84152,0.0054 0.755398,0.01 41.82,0.01 z M 10.82,22.49 H 35.9 L 57.26,1 c 1.32,-1.33 3.46,-1.33 4.79,-0.01 0.67,0.66 1,1.53 1,2.4 h 0.01 v 88.36 c 0,1.88 -1.52,3.4 -3.4,3.4 -0.95,0 -1.81,-0.39 -2.43,-1.02 L 36.08,76.29 H 10.82 C 7.84,76.29 5.14,75.07 3.18,73.11 1.22,71.15 0,68.45 0,65.47 V 33.31 c 0,-2.98 1.22,-5.68 3.17,-7.64 1.96,-1.96 4.67,-3.18 7.65,-3.18 z M 37.3,29.28 H 10.82 c -1.1,0 -2.11,0.45 -2.84,1.19 -0.73,0.73 -1.19,1.74 -1.19,2.84 v 32.16 c 0,1.1 0.45,2.11 1.19,2.84 0.73,0.73 1.74,1.19 2.84,1.19 H 37.3 v 0.02 c 0.77,0 1.54,0.26 2.18,0.79 L 56.27,84.46 V 11.61 L 39.88,28.09 c -0.62,0.73 -1.55,1.19 -2.58,1.19 z" /></g></svg>
